<svg xmlns="http://www.w3.org/2000/svg" width="300" height="300" viewBox="0 0 300 300">
  <defs>
    <style>
      .text,
      .icon {
        fill: #fff;
        pointer-events: none;
        cursor: pointer;
      }

      .slice {
        cursor: pointer;
      }

      [data-id="ej"] .slice {
        fill: #2b3990;
      }

      [data-id="ej"] .slice:hover {
        fill: #0069b5;
      }

      [data-id="water"] .slice {
        fill: #27aae1;
      }

      [data-id="water"] .slice:hover {
        fill: #5cbeec;
      }

      [data-id="transportation"] .slice {
        fill: #00a79d;
      }

      [data-id="transportation"] .slice:hover {
        fill: #3cbca5;
      }

      [data-id="waste"] .slice {
        fill: #8dc63f;
      }

      [data-id="waste"] .slice:hover {
        fill: #cbdb2a;
      }

      [data-id="energy"] .slice {
        fill: #f7941d;
      }

      [data-id="energy"] .slice:hover {
        fill: #fcb116;
      }

      [data-id="more"] .slice {
        fill: #92278f;
      }

      [data-id="more"] .slice:hover {
        fill: #bd1a8d;
      }
    </style>
  </defs>

  <a href="https://www.epa.gov/climate-change/what-you-can-do-about-climate-change" target="_top">
    <g data-id="globe">
      <path fill="#86bcdf" d="M221.85,150a71.86,71.86,0,1,1-143.71,0c0-45.43,30.8-72.47,71.86-72.47C189.68,77.51,221.85,110.3,221.85,150Z"/>
      <path fill="#98d09f" d="M183.85,86.61l-.54-.29-.5-.29.29.15.06,0h0l.77.42.1,0,.26.16h0l-.44-.25m-2.68-1.4-.73-.35.45.21.17.08.8.4-.69-.34m-1.47-.7-.51-.25-.35-.15-1.08-.48-.27-.12.75.32-.14-.06.37.17.12,0,.31.13h0c.25.1.47.21.69.31l.08,0,.81.41-.74-.35m40,47.85c-.08-.37-.17-.74-.26-1.11l.3,1a.09.09,0,0,1,0,.05l0,.08,0-.06m-.73-2.63-.37-1.33c-.24-.74-.55-1.57-.86-2.42l-.25-.73-.71-1.81a46.68,46.68,0,0,1,1.82,5l.53,1.82-.16-.49M191.55,91.44c-.92-.66-1.86-1.3-2.81-1.91l-.09-.07c1,.64,2,1.31,2.91,2h0M188,89.06l-.09-.07h0l-.07,0h0l.54.34.28.19-.64-.4m.36.21h0l0,0h0m-.22-.12c1.15.73,2.29,1.5,3.4,2.29-1.09-.76-2.34-1.58-3.4-2.29m33.69,55.38v.07h0v-.07m.12,1.6v.05h0v-.06m0-.08h0a2.29,2.29,0,0,1,0-.25v-.05c0,.13,0,.26,0,.38v-.08m0-.63a.38.38,0,0,1,0-.1c0-.12,0-.23,0-.35,0,.17,0,.35,0,.52v-.07m0-.63c0,.06,0,.13,0,.18s0-.12,0-.18m-.53-4.33-.08-.73.15,1h0c0,.21.06.43.08.64v.05c0-.33-.09-.66-.15-1m-1.64-8a.16.16,0,0,0,0-.13c.06.28.13.58.19.88l-.21-.75M99.93,95.77c-.54.47-1.06.94-1.57,1.41.53-.5,1-.93,1.57-1.41M120.48,94a3,3,0,0,0,.2-.29l.32-.51-.46-.06-.72.3-.35.74.64,0,.37-.16m-1.17-.94,0,0,.16-.29c-.12.06-.23.14-.36.2a.77.77,0,0,1-.23.07,3,3,0,0,0-.63.27l-.32.14c0,.07,0,.16.09.21a.49.49,0,0,0,.23,0,2.92,2.92,0,0,0,1-.55M132,82.85l.67-.14v-.33l-.67,0h-.51l-.52.39-.34.31.76,0,.6-.24m54.41,5.27c-.24-.16-.49-.29-.74-.43l-.13,0,.45.27,1,.58.07,0c-.1-.08-.21-.13-.31-.2h0a1.85,1.85,0,0,0-.3-.2m-3.36-2-.76-.4.41.21-.44-.22-.05,0,.29.16-.09,0-1.55-.79,0,0-1.29-.62L182.81,86l.29.15h0m.85.45-.21-.11-.1-.06-.44-.23.77.42,0,0m-22-7.69c-.16,0-.56-.12-.62-.12l.1,0h0l-.91-.18c.19.06.4.07.59.14l-.17,0-.4-.09-.1,0-.22,0a2.09,2.09,0,0,0,.21,0h0l-.12,0h-.08c.67.13.89.19,1.07.23a5.37,5.37,0,0,0-1.32-.23s.5.12.89.19h0l.21,0-.07,0c.11,0,.38.07.55.11l-.21,0,.43.1c.15,0,.31.08.46.1h.16c.21,0,.39.17.61.11l-.37-.11a1.59,1.59,0,0,0,.3.06c-.27-.1-.57-.13-.84-.21h0l-.14,0m.05.18-.09,0,.1,0h0m4.69,1.14-.18-.06c-.42-.12-.84-.21-1.26-.34l-.22,0c-.46-.14-.92-.25-1.39-.37-.07,0-.73-.17-1-.21l.14,0-.34-.07-.47-.12c-.51,0-1-.22-1.48-.3h0l.51.13.18,0a7.92,7.92,0,0,1,.88.23,2.41,2.41,0,0,1-.58-.14l-.19,0L161.1,79l-.18,0a1.93,1.93,0,0,0-.43-.09L161,79h-.1l-.3-.08-.43-.11.27.08h-.19v0c.78.22,1.59.37,2.37.64a6.14,6.14,0,0,0-1-.26,12.91,12.91,0,0,0,1.35.38s0,0-.49-.18c.3,0,.56.21.86.22h.11s-.46-.18-.64-.23l-.3-.09h0l.72.21h.15l-.2-.08.16,0,.49.14.14,0h-.17l-.15,0,.07,0h-.11s0,0,.19.1l.4.14,0,0h.06c.19,0,.2,0,.24,0s0,0-.21-.12h0a1.47,1.47,0,0,1,.6.23h0l-.28,0a2.67,2.67,0,0,0,.85.3,7.56,7.56,0,0,1,1.41.43v0s-1.25-.52-1.4-.6h0l-.9-.3h.07a5.79,5.79,0,0,0-1.14-.36l.25,0c1.39.4,1.39.4,2.45.76h.09l-.33-.15a5.26,5.26,0,0,1,.76.23l.11,0s0,0-.4-.15h.19l0,0m54.51,59.25a73.24,73.24,0,0,0-1.53-7.3,2.86,2.86,0,0,0-1.3-.53,36.85,36.85,0,0,0-4.22-.69,7.08,7.08,0,0,1,.08,1.35l0,.11,0,.08h0a.45.45,0,0,0-.23.08h-.06l0,0,0,.05-.1.09-.09-.11-.09-.14c-.1-.09-.11-.09-.13-.09a1.41,1.41,0,0,1-.46-.19h-.12v.14c.29.25.29.25.47.31a.48.48,0,0,1,.15.28l0,.15.17.33a2.05,2.05,0,0,1,.07.34l0,.11,0,.15a10.1,10.1,0,0,0,.65,1.65,3,3,0,0,0,.45.87l.14,0,.13,0a5.28,5.28,0,0,0,0-.55l.11.19c1.36,3.31,1.36,3.31,1.42,3.8,0,.1,0,.14,0,.18,0,1.37.87,2.48,1.18,3.76.16.71-.11,1.46.21,2.15a7.67,7.67,0,0,1,.61,1.66l0,.19.75,4.93c0,.81-.06,1.54-.11,2.26a3.09,3.09,0,0,0,.24,1.08.8.8,0,0,0,.27,0c.15-.32.15-.69.31-1a.6.6,0,0,1,.37,0h0l0,.12.14-.39a1.52,1.52,0,0,1,.61-1.15l.07-.44c.05-.32.36-1.48.37-1.48l.14.12c0-.88,0-1.38,0-1.39l.07.06v-1.07c0-2.35-.17-4.55-.41-6.73V143c0-.36-.09-.72-.15-1.08s-.11-.88-.16-1.29c0-.13-.05-.25-.08-.38.05.54.05.54.22,2.1l-.08-.11,0,0-.07-.25,0,0c0,.24,0,.47,0,.7a2.64,2.64,0,0,1-.23-1.21v-.14c0-.08,0-.08.05-.08a.71.71,0,0,0,.12.23.88.88,0,0,0-.05-.53l0,0-.07,0c-.1-.14-.11-.33-.29-.41a.18.18,0,0,0-.07-.08l-.18-1.21c-.38-1.5-1.11-2.9-1.15-4.49.11,0,.34.12.86,2.22a10.67,10.67,0,0,0,.77,2.23l.05,0,0,0,0-.13V139a2.3,2.3,0,0,1,.11.42v.05m-1.53-7.3a72.84,72.84,0,0,0-13.13-26.4l1.76,2.34c2.23,3.09,2.23,3.09,5.9,9.68,1.74,3.42,1.74,3.42,4.38,10.58l1.14,3.89-.05-.09M192.32,98.52l.54,0-.14,0h-.08l-.2-.14-.13-.16h-.19l0,0v0l.11.15.05,0,.08.06M179.74,86.29l-.81-.5h0v0h-.13l.09,0,.68.43.21,0m13.12,12.27a58.13,58.13,0,0,1,7.55.94,2.21,2.21,0,0,1,.94.38l-.36-.37c-5.48-5.15-5.48-5.15-8.54-7.42l-4.08-2.83h0l-1.41-.88c.3.18.33.2.67.43h0l.28.2,0,0c.56.49,1.35.69,1.76,1.36l0,0c-.49-.31-1-.62-1.47-1h.1l-.61-.4a1.86,1.86,0,0,0-.3-.17l-.57-.35h-.05l-.34-.19h-.1c.09.08.23.17.36.27a1.73,1.73,0,0,1,.24.1l1.16.76a7,7,0,0,0,.76.53l.57.36a.85.85,0,0,1,.14.09c.28.25.61.45.91.67l-.25-.11-.27-.19-.22-.14-.11.06c.26.24.48.51.74.75v.06c.48.36,1,.68,1.46,1.06h0a1.14,1.14,0,0,1-.37-.12h-.05a5.36,5.36,0,0,1-1.23-.7,1.78,1.78,0,0,0,.86.74,1.5,1.5,0,0,0,.3.23c.09.06.11.07.13.07a1.4,1.4,0,0,1,.71.42c0,.07-.1.06-.19,0l.11.11A7.5,7.5,0,0,1,190,92.07a.83.83,0,0,0-.25-.08l-.57-.45c-.95-.76-2.08-1.23-3.07-1.94.41.15,1.81.84,1.82.84a3.1,3.1,0,0,0,.44.09c.24.09.45.23.69.31h.14a1,1,0,0,1,0-.25,14.56,14.56,0,0,0-4-2.4L184.8,88a1.22,1.22,0,0,0-.47-.18l-.08,0c-.26-.13-.52-.25-.76-.39h-.15l.44.29h-.11a3.1,3.1,0,0,1-.57-.36l-.13-.08a5.55,5.55,0,0,1-.73-.4h-.15l.11.1-.76-.25-.29-.15h.12l-.32-.22a5.12,5.12,0,0,0-1.34-.53l.54.33a1.47,1.47,0,0,1-.47-.22l-.21-.15-.23-.14-.39,0a6.05,6.05,0,0,1,.68.42l.23.14.13.07h0a4.71,4.71,0,0,0-.81-.48l-.19,0-.45-.27-.12,0,0,0,.08.08-.11.06c.14.11.3.21.45.33l0,0a1.17,1.17,0,0,1-.48-.25.51.51,0,0,0-.28-.09l-.07.1a1.64,1.64,0,0,0,1,.49l.41.26h-.13a4.37,4.37,0,0,0-.62-.17h-.15a5.67,5.67,0,0,1,.77.55c-.55-.22-1.06-.52-1.59-.76,0,.09.1.16.21.23a4.31,4.31,0,0,1,1,.72c-.16,0-.16,0-.66-.32l.08.12-.09.07.24.2c.17.11.38.15.55.28l.2.15.09.09a7.18,7.18,0,0,1-1.24-.64c0,.13.2.25.36.36H178c0,.06,0,.06.38.32a1.09,1.09,0,0,1-.24.07,2.12,2.12,0,0,1,.11.21l0,0a.88.88,0,0,0,.19.24h-.09l.06.1a.53.53,0,0,0,.2.06.45.45,0,0,1,0-.23h.13l0-.12a.46.46,0,0,0,.16-.18.86.86,0,0,1,.65.27h-.25l.09.08-.12,0a4.77,4.77,0,0,0,.77.85l-.14,0s1,1.59,1.17,1.77l-.14-.11c-.06.27-.06.27,0,.35a.55.55,0,0,0-.18.16l.19.23.13,0a.92.92,0,0,1,.28,0l.26.29a1.83,1.83,0,0,0-.06.25l-.12,0c0,.2,0,.23-.07.34a3.88,3.88,0,0,0,.19.34l-.09.1-.31-.15-.26,0,.19.25c.08.07.17.16.25.22l0,.13-.13,0H181c-.11.11-.11.11-.15.33h-.12l0,.12c.14.16.43.49,0,.49a.65.65,0,0,0-.09.23c.31.3.31.3.35.4l-.08.1c.12.29.4.44.57.68,0,.1,0,.09-.08.09l0,.12c.09.13.16.24.24.34l.33,0c.34-.07.46.3.47.31l-.07.11c.07.11.14.23.22.34l-.1.07c.14.33.14.33.76.41a3.25,3.25,0,0,1,.23.37l-.05.12,2.18.12a2.7,2.7,0,0,0-.08-.41l.11-.06.11,0a.56.56,0,0,0-.14-.39c.48.06,1,.83,1,.83,1.25.11,2.41.18,3.5.26l0-.12.12,0a3.8,3.8,0,0,0-.31-.84l-.17-.19c-.22-.23-.26-.29-.7-.25-.32-.36-.81-.53-1.09-.94s-.72-.84-1.09-1.24c0-.44-.45-.64-.53-1h.13c0-.13,0-.2-.15-.47a.49.49,0,0,1,.23-.06,1.52,1.52,0,0,0-.28-.44v-.12l.13,0c-.08-.74-.88-.76-1.24-1.22l0-.12a5.75,5.75,0,0,0-.49-.53.43.43,0,0,1,.25,0h.1l.66.43,0-.13c.17,0,.17,0,.76.4l.56.49-.24,0c.8.7.89.77.91,1l-.25-.07-.09.08a8.47,8.47,0,0,0,1.93,2.56l.21.23a15.4,15.4,0,0,0,2.36,1.51h0a1.22,1.22,0,0,0,0-.27c.18,0,.34.09.52.06a1.89,1.89,0,0,1,0-.23,2.16,2.16,0,0,1,.67,0l0-.12.1,0a5.7,5.7,0,0,0,.55.42l.39,0,.19.16.07.11h-.37c0,.19,0,.19.33.84-.32,0-.53-.31-.82-.41l-.08.11a1.17,1.17,0,0,1-.37-.08l-.08.1,0,.11a.85.85,0,0,1-.24-.09l-.11.07a3.19,3.19,0,0,0,.27.46l0,.07m-7.3-.48L183.38,98v0c0,.11,0,.11,0,.14s.12.1.17.17l.08.13.42,0,.1.08.34.26.19-.08c.17,0,.3.18.48.14,0,0,.2,0,.15-.18v-.08c.16,0,.16,0,.2,0l0-.13c0-.07-.06-.12-.06-.19v-.15m4.48.28c-1.08-.09-2.24-.16-3.45-.23.18.25.49.35.68.6l.06.08V99a2.17,2.17,0,0,0,.51.49c.43.24.43.24.56.4l.12.17.12.16a2.39,2.39,0,0,0,.83.71.7.7,0,0,1,.27.27c.09.13.09.29.17.43l.05.08c.09.13.2.24.29.36l.85,0c-.35-.61-.35-.61-.29-.76s0,0,.11,0h.13c.13,0,.2.18.35.14s-.06-.17,0-.25.07,0,.21,0l-.35-.51.45,0a2.3,2.3,0,0,0-.31-.43h-.21c-.21.06-.31-.14-.46-.2s-.07-.19-.1-.28c-.16-.45-.54-.77-.7-1.22l0,0,0-.15.07,0m29.62,33.84a72.84,72.84,0,0,0-13.13-26.4c-1.53-1.8-3.56-4.21-5.18-5.92a2.21,2.21,0,0,0-.94-.38,58.13,58.13,0,0,0-7.55-.94l-.54,0,.13,0h0l.17.12a.66.66,0,0,0-.37.17,1,1,0,0,0,.89.54.67.67,0,0,0,0-.42c.63.09,1.49,1.09,1.5,1.1-.12.25-.12.25.11.58,0,.14,0,.14-.08.13s-.1,0-.81-.62h-.1l-.26-.34h-.2a7.45,7.45,0,0,0,1.68,3l.07.17c-.92-.22-.92-.22-1-.21.07.43.5.59.71.92l-.08,0c-.41-.26-.78-.56-1.18-.83-.09.05-.09.05-.5.85h-.45c-.49.56-1-.32-1.17-.61l-.25,0c0,.06,0,.14,0,.2l-.23,0-.34,0-.22,0c.06.12.15.28.22.4s-.11.13-.2.13c-.35-.07-.37-.1-.66-.5l-.15,0-.26,0-.19-.31-.13-.18c.12-.17.29-.16.46-.15s.54.26.81.35l.14-.17c-.23-.49-.74-1.39-.75-1.39a.52.52,0,0,0-.33-.15l-.4.15s0,.14.06.19-.07.14-.09.14a.65.65,0,0,1-.37-.68l-.2-.31c-.94.12-.71-1.19-1.44-1.39,0,0,0,0,.1.63l-.36.19a1.85,1.85,0,0,0,.24.33l.08.12a1.36,1.36,0,0,0,0,.2l-.17.14c.06.23.06.23,1.27,1.62l.1.17c0,.12.11.28.16.4s.42.45.61.69a3.81,3.81,0,0,1,.23.41h-.21l-.46.06h-.17a2.41,2.41,0,0,0-.83-.07c0,.06,0,.14,0,.21a1.06,1.06,0,0,0-.34.26c.06.38.06.38-.12.56l-.19-.13a.62.62,0,0,0-.18,0h-.14l-.2,0a.58.58,0,0,0,.09.34l.38.2c.09.2.19.4.29.6-.4,0-.47.1-.87.83h-.17a2.75,2.75,0,0,1-.41,0,5.65,5.65,0,0,0,.38,1.14,1.76,1.76,0,0,0-.83.1c.06.2.13.39.21.59l-.6,0c-.12-.06-.12-.06-.59-.13-.19-.11-.21-.17-.24-.24a.7.7,0,0,0-.39-.18,1.23,1.23,0,0,0,.1.6l.2.08.17.46.15.2.09.24a2.23,2.23,0,0,1-1.63-.42c-.83.31-.83.31-.9.42a1.66,1.66,0,0,1,.06.21c.19.14.24.14.3.14a1,1,0,0,0,.91.43h.24c.43.3.82.63,1.23.94.18.4.29.75.41,1.1.78.92,2.09,2.45,1.28,3.31,0,.06,0,.15,0,.21-.4.31-.4.31-.6.34h-.19a7.11,7.11,0,0,1-1.74-.72c-.69,0-1.23-.07-1.77-.09-.74-.11-.74-.11-.88-.19a1.19,1.19,0,0,0-.26-.11l-.16.12c0,.07,0,.15,0,.22a2,2,0,0,1-1,.14l-.05.21c.57.67.35,1.68,1,2.33.1.45.19.87.27,1.3v.2c-.65.65-.31,1.19,0,1.71l.14.17a1.05,1.05,0,0,1,.1.33c0,.08,0,.15,0,.23-.16.28-.17.36,0,1a1.57,1.57,0,0,0,.59.09c.57-.12,1.07.28,1.63.18.1.1.1.1.82.46.23.27.35.63.64.84,0-.08.06-.18.08-.25l-.2-.07a26.62,26.62,0,0,1,4.55-2.25c0-.24-.11-.49-.16-.73-.59-.91-.59-.91-.41-1.89l.07-.43h.43a1.23,1.23,0,0,0,.19-.38,1.25,1.25,0,0,1,.39-.11l.05-.19,1-.1a1.11,1.11,0,0,0-.07-.65l-.05-.22a3.5,3.5,0,0,1-.34-1.27c.33-.2.33-.2,1,0h.07a3.41,3.41,0,0,0,.86.4l.4,0,.2,0A2.29,2.29,0,0,1,193,116a1.11,1.11,0,0,1,.34,0c.15,0,.48,0,.66-.63,1.16.32,1.4,1.61,2.32,2.18a1.12,1.12,0,0,1,.52.55c1.49,1.06,4.27,3,4.58,4.71-.62.12-.62.12-.69.45a5.57,5.57,0,0,1-1.68-.09c0,.08.08.18.11.27.56.32.88,1,1.51,1.19l.88,0c-.08-.28-.15-.56-.23-.84.23-.16.33-.44.58-.56,0-.3-.08-.59-.13-.88a.84.84,0,0,1,.35-.21.86.86,0,0,0,0-.39,2.9,2.9,0,0,1-.14-.38,2.57,2.57,0,0,1-.45,0,.41.41,0,0,1-.23-.28l0-.2a.77.77,0,0,1,.52-.09,1.52,1.52,0,0,1,.69.53c0-.46-.28-.8-.41-1.2a4,4,0,0,1-1.75-1.38c-.59,0-.9-.59-1.43-.74-.21-.65-.84-1-1.19-1.48a.34.34,0,0,0-.16,0c-.42-.76-.42-.76-.9-.75a2.5,2.5,0,0,1-.26-.55l.07-.2c.07-.17.05-.21,0-.24-.36-.66-.36-.66-.36-.73.7-.11,3.38,2.64,3.41,2.67a.87.87,0,0,0,.75.41l.16.25c.47.59,1.29.73,1.75,1.36.68,1,.87,2.22,1.49,3.24a2.7,2.7,0,0,1,.41.07,3.4,3.4,0,0,1,.43,1l-.33,0a1.74,1.74,0,0,1,0-.22l-.2-.06c0,.36.3.73.8,1.23,0-.07.1-.18.15-.25.61.3.58,1,.93,1.47a1.07,1.07,0,0,0,.38.11h.21c.08-.52.08-.52.05-.6s-.05-.18-.08-.26a1,1,0,0,1-.12-.4l.17-.12a3.83,3.83,0,0,1,.29.28h.23c.09-.28.09-.28-.12-.87l.21,0,.06-.19c-.33-.48-.35-.49-.6-.56a2.29,2.29,0,0,1,.21.66c-.15,0-.51-.09-1.74-2-.07-.22-.1-.29-.12-.36a1.49,1.49,0,0,1,0-.21l.16.12c.32.31.32.31.52.36h.32c0-.24,0-.24-.24-.52a1.77,1.77,0,0,0,0-.23c.54-.32.83.3,1.27.39.28.47.28.47.35.53a1.23,1.23,0,0,1,.23.4l-.15.14c.18.62.8,1,.92,1.64a2.07,2.07,0,0,1,.14.42,1.14,1.14,0,0,0,.07.22,3.34,3.34,0,0,0,.35.6l.08.12.08.06.07.12.11.12.07.09a1.11,1.11,0,0,1,.14.47v.12l0,.14a3.29,3.29,0,0,0,.23.66l.09.11.08.09a1,1,0,0,0,0-.35l0-.29c0-.14-.1-.32-.15-.45s0-.15-.06-.21,0-.12.07-.12l.06,0,.09.1.06.11.09.09.28.36.09.15.08.11.07.07h.05a.64.64,0,0,1,.3.14l.18,0,0-.05,0-.07,0-.12,0-.11a1.14,1.14,0,0,1-.15-.59v-.12l0-.1a.61.61,0,0,1,.37.15,3.71,3.71,0,0,0,.23.32l.27.34.08.11.07.09.05,0,.09.06.64.08c0-.12-.08-.28-.12-.4l0-.14a3.36,3.36,0,0,1-.14-.45l.13,0,0,0h.07c.08,0,.08,0,.39.39l.15,0,0-.06,0-.1,0-.08.05,0a1.28,1.28,0,0,0,.17.3l0,.11a3.77,3.77,0,0,1,.19.73,4.54,4.54,0,0,0,.33,1.26l.05.11a1.22,1.22,0,0,1,.18.67l0,.07v.12c0,.12.07.28.09.4v.12c0,.67,0,.67-.08.74l0,.08,0,.11,0,.12c1.86.34,3.29.57,4.24.81a2.86,2.86,0,0,1,1.3.53m2.3,14-.11-1.42h0a2.09,2.09,0,0,1,0-.25v0c-.12-1.31-.27-2.39-.27-2.4v0c0,.46.07.57.08.78.24,2.18.38,4.38.42,6.62l0,0V149c0-.38,0-.77,0-1.16h0c0,.11,0,.2,0,.3s0-.87-.1-2m-.55-5.45-.16-1c-.43-2.24-1-5.23-1.54-7.44l-.05-.09a73.24,73.24,0,0,1,1.53,7.3c.07.39.11.8.19,1.19l0,.07h0M175.79,98l0,0-.21.09c-.08,0-.07.16-.14.21l-.12,0h0l0,.15c0,.1-.11.17-.11.27a.58.58,0,0,0,.08.22l.19.09.11-.08s0,0,0-.11l0-.1v-.09l0,0c.13,0,.25,0,.26,0l0-.07,0-.09,0-.16v0a2.46,2.46,0,0,0-.07-.24m9.38,7.65a2,2,0,0,0-.2-.38c-.35-.21-.56-.58-.9-.8l-.12.07c.07.09.07.09,0,.43-.15.07-.15.07-.8-1l-.45,0a5.89,5.89,0,0,0-.28-.68c-.2-.23-.51-.3-.72-.51l-.18,0c-.13-.26-.47-.31-.57-.59s-.59-.71-.89-.72c-.5,0-.95-.18-.69-.58,0-.13,0-.13,0-.17l.27,0-.11-.21c-.11-.19.14-.35,0-.53s-.23-.46-.35-.68c-.47,0-.95,0-1.42-.1,0-.14,0-.14.06-.2s-.16-.25-.16-.41a2.82,2.82,0,0,0,.16-.34c-.15-.13-.17-.14-.28-.16h-.38s-.14.06-.62,0l0,0a2.65,2.65,0,0,1,.16.63c.07.21.21.39.29.58-.28,0-.5-.15-.77-.19s.05.56.07.59c.14.18.42.08.58.26V100c0,.06,0,.12.1.22s.24.27.17.48c-.42.1-.42.1-.19.49h.34s.07-.09.55.3h.31a.68.68,0,0,1-.08-.35s.68.63.61.9c-.38,0-.19.23,0,.46l.78,0v-.17c.52.27.64.93,1.18,1.18.08.37.08.37.16.46s.24.34.15.45l-.47,0c-.16,0-.29-.15-.46-.15h-.23s0,0,0,.18l0,.19-.27,0,0,.18c.31.18.92,0,1,.49h-.18c-.1.13-.1.13-.09.28s-.07.07-.21,0h-.11c.16.77.5.55.64.46a11.88,11.88,0,0,1,1.29.17c.07,0,.24.27.09.38s-.53,0-.77.15a1.37,1.37,0,0,1,0,.19,1.55,1.55,0,0,0-.45.07,1.57,1.57,0,0,1,.17.57.68.68,0,0,1-.41.27c.28.15.28.15.68,0l.14-.13,0-.14a1.9,1.9,0,0,1,.42.15l.49,0c-.16-.41-.15-.43-.11-.5,1.25.22,1.24,0,1.22-.21l0,0c.31,0,.49.31.78.36h.1c.2-.08.42.06.61,0s.09-.15.08-.29.3,0,.43-.1c-.06-.29-.33-.43-.48-.66l-.05-.12c0-.1,0-.1,0-.17a1.27,1.27,0,0,1,.28,0s-.05-.21-.1-.37h.31m-9-2.94h0m2.27.23c-.06-.26-.31-.33-.44-.52s-.09-.26-.19-.35a.64.64,0,0,0-.21-.14c-.06,0-.13,0-.19,0a2.14,2.14,0,0,0-.19-.13h-.08a1,1,0,0,0-.33.12V102l-.13.08a3.38,3.38,0,0,0-.54-.36c-.1,0-.25,0-.36,0,.13.29.18.6.33.88H176l-.12.08c-.06,0-.13,0-.19,0l-.07,0c-.06,0-.14.11-.23,0s-.18-.11-.33-.08c.17.42.32.85.47,1.28a2.53,2.53,0,0,0,.56,0l.21.57a2.83,2.83,0,0,0-.41,0c-.15.27.13.49.08.75-.15.08-.21.11-.06.37a.89.89,0,0,0,.44.3c.16,0,.25-.11.39-.11a.74.74,0,0,1,.4.12c.15,0,.29-.21.3-.23s0,0,0-.22.08-.09.11-.15l1.42.05c0-.09-.07-.18-.1-.27s-.25-.23-.27-.41c.17-.12.17-.12.14-.24a5.62,5.62,0,0,0-.43-1.09l-.15-.36c.31,0,.34-.14.31-.27M211.14,188a1.32,1.32,0,0,0,.12-.2c1.5-2.62,1.48-2.75,1.43-3.11a26.78,26.78,0,0,1-1.75,2.69c-.53,0-.4.66-.73.86-.47-.12-.47-.12-1.77,1.76-.57.82-.75,1.89-1.58,2.54l-.05-.05c-.54.61-1,1.27-1.54,1.9l-.14.19c-.21.31-.39.65-.62,1-.09.12-.18.25-.29.38-.25.36-.54.69-.79,1.07l0,.06a1.85,1.85,0,0,1,.23,0c-.17.27-.17.27-.17.32l.05,0v.08c1.24-.31,6.39-7.71,6.44-7.79l.26-.4c.07-.14.15-.28.23-.41a2.25,2.25,0,0,1,.12-.21c.16-.23.35-.45.5-.69m9.74-28.88c0-.32.07-.65-.21-.87,0,.12-.11.29-.16.42l-.45.12a1.92,1.92,0,0,0-.48,0l-.26-.31a6.21,6.21,0,0,0-.12-1.79c0-3.14-2-5.86-1.8-9,0-.17,0-.34,0-.65,0-.08-1.18-9.45-5-14.64a.94.94,0,0,0-.31.08,4.19,4.19,0,0,1-.26.33h-.1c-2-.85-3.56-2.43-5.79-2.69.19.94.45,1.87.56,2.84l-.4.08-.49,0c-.41-.38-.65-.94-1.22-1.14-.48,0-1-.07-1.49-.16a4.5,4.5,0,0,0-.35-.84c-.88-1-2.31-1-3.35-1.78s-.36-2.47-1.37-3.35c0-.13,0-.31,0-.45a1.32,1.32,0,0,0,.54-.58,4.58,4.58,0,0,0-1.16-.65,9,9,0,0,1-2.56.33,1.72,1.72,0,0,1-.64.49c-.94-.83-.94-.83-2.71-.52-.07.12-.15.28-.21.4a3.8,3.8,0,0,0-1.87.24,2.41,2.41,0,0,1-.2.8c-.53.12-1.1,0-1.6.26A2.71,2.71,0,0,1,187,126l-.45-.09h-.31a1.79,1.79,0,0,1-1.6-.52l-.42-.24c-.37.65-.07,1.38-.27,2.05a4.56,4.56,0,0,1-1.29,0c.09.63.17,1.27.25,1.9a3.29,3.29,0,0,0-1.51.2c0,1-.11,2.09-.06,3.14,0,.27,0,.55.07.83a2.49,2.49,0,0,0-1.25.17,1.86,1.86,0,0,1-1.7,1.89c-.4.06-2.21,4.52-2.22,4.56l-.4,0-.4.08-.39.24c.16,2.45-.16,2.57-1.12,2.94,0,.12-.1.28-.14.4a1.36,1.36,0,0,0,.24.91c1.72.32,1.72.32,1.89.65-.46.93-.46.93-.46,4.05,0,.17,0,.33,0,.5,0,.38,0,.38-.89,1.29a17.37,17.37,0,0,0,.37,1.74c0,.17,0,.33,0,.9,0,0,1.75,3,3.42,3.9-.08.72-.29,2.64,2.34,2.82,1.77,3.47,1.88,3.67,3.51,3.45a3.38,3.38,0,0,0,.37-.82c.53-.22,1.11,0,1.65-.1h.25l1.26,0c.34.51.34.51,2.61.51.7-1.41,1.28-1.28,2.58-1a.94.94,0,0,0,.25,0s1.1-1.13,2-.37c.15,1.91.15,1.91.92,2.26l3,.15c-.08.49-.15,1-.25,1.54a42.87,42.87,0,0,0-1.41,4.47,1.15,1.15,0,0,0-.6.46,1.36,1.36,0,0,0,.61.53c.26.65,0,1.46.62,2-.22,2,.89,4.07-.17,6.07-.05.15-.1.29-.26.79a1.74,1.74,0,0,0,.14.84l-3.05,5.06c-1.92,1.31-1.52,5.65-1.5,5.69a5.1,5.1,0,0,0-.73,2c-.37.65-.75,1.3-1.2,2,0,0-2.23,5.72-2.53,6.59l-.24.27c-.7.36-.7.36-.87.89.06,0,.13,0,0,.26-.08.1-.2.23-.28.34s0,.29.07.42a6.78,6.78,0,0,0,1.19,0,7.49,7.49,0,0,1,.84-.27,3.29,3.29,0,0,0,1.34-.1c3.4-3.22,7.69-5.33,11.08-8.58l7.76-9.52c.12-.21.22-.42.5-.94a7.52,7.52,0,0,0,.32-.78c.42-.84.84-1.69,1.23-2.64.17-1.55,1.11-2.86,1.41-4.38,0-.07.06-.15.12-.32,1.27-2.92,3.43-5.33,4.68-8.26,2.53-5.88,2.53-5.88,3-9.72m-66.69,17.22s-.1-2.4-1.27-2.91l-1.12,0c-1.77-.53-1.77-.53-1.93-1.58-1.11-.71-1.11-.71-1.9-.48-.47,0-.95,0-1.55,0-1.52-.61-1.52-.61-2-.42v.41c-.32.19-.5.29-1.26-.1,0-.1,0-.24,0-.34l.57-.37a6.31,6.31,0,0,0-2.76-1.3,1.35,1.35,0,0,1-.53-.14,1.67,1.67,0,0,0-1.37-.22c0,.37,0,.74,0,1.11h-1a5.36,5.36,0,0,1,0-.64l.42-.53.29-.22-.2-.32s-.64-.2-1.33-.47h-.26a2.94,2.94,0,0,0-.52.06c0,.8.06,1.16-.93,1a3.92,3.92,0,0,1,0-.6l0-.35a1.68,1.68,0,0,0,1-.19,3.24,3.24,0,0,0-.06-2.1c-.2,0-.48,0-.69,0a9.61,9.61,0,0,0-.16-1.5c-.11-.43-.38-.8-.52-1.22-1.24-.29-1.35-.63-1.46-.95a17.44,17.44,0,0,1-1.9-.78c-.61-.29-1.19.1-1.79.07h-.42c-2.87-.56-2.86-1.72-2.86-2.21-1.13-.6-1.13-.6-1.5-.83,0-.08,0-.17-.32-.29-.56-.37-.56-.42-.55-1.13a2.33,2.33,0,0,0-.41,0c-.34.11-.66.26-1,.34-.28-.26-.28-.26-.34-1l.35-.1c0-.1,0-.23.06-.33a2.51,2.51,0,0,0-1-.37l-.5.44a.74.74,0,0,1-.3-.09,2.28,2.28,0,0,0-.65-.14c-.3.35-.36.84-.65,1.21h-.38c-.51-.83-.53-.84-1.32-1a9.56,9.56,0,0,1-1.26-.05,4.7,4.7,0,0,0-.67-.18.86.86,0,0,0-.31-.74c-.53-.15-1-.55-1.5-.68l-.29.2c0,.05,0,.05-1.28,1.41a13.7,13.7,0,0,1,.3,1.78l-.25.23c-.36-.59-1.39-2.63.29-4l-.1-.25c-.16,0-.32,0-.58,0-.62.21-.62.27-.56,1.05l-1.19,0c-1.41,1-1.41,1-2.16,1,0,.48,0,1,0,1.49-.26.29-.26.29-.92.49,0,1-1.41,1.57-.86,2.75l.32.05c.06,1,1.31,2.09.22,3-.13,1.83-.13,1.83-.75,1.94.06.25.14.59.21.84-.16.12-.36.29-.5.42s0,.35,0,.5c-.68.24-.7.57-.58,1.42a2.14,2.14,0,0,0-.75.12c.2.69.15,1.41.39,2.08.32.11.66,0,1,0,0,.15.06.31.08.49a3,3,0,0,0-.15.31,1.42,1.42,0,0,0-.57.33c.11.71-.41,1.45.13,2.13a1.73,1.73,0,0,0,.06.3c.43,2,2.9,2.49,3.46,4.42,0,.17.09.34.15.54.51.67.65,1.56,1.3,2.15,1.24,1.13,1.2,3.89,3.56,3.58,2.18-.29,2.32,2.73,4.35,2.69.21.72.42,1.43.65,2.19a2.4,2.4,0,0,0,.17.65v.1c0,.07,0,.13.16.39l.15.29a1.34,1.34,0,0,1,0,.36,2.62,2.62,0,0,0,.18.68v.06a1.22,1.22,0,0,0,.2.39c0,.1.09.23.13.33l0,.11c0,.06,0,.13,0,.49a3,3,0,0,0,.35.61c0,.07,0,.13.07.19s0,.13.07.22a8.19,8.19,0,0,0,.21,2,10.61,10.61,0,0,1,.48,2.72,2,2,0,0,0,.16.29c1.39,2.28,1.86,3,1.54,4.15a4.36,4.36,0,0,0,.28.47c0,.09.11.22.15.31.19.24.19.24.14,1.49.83.79.94,2,1.79,2.81.59.51.43,1.52,1.24,1.88h.36l-.82-1.27H127l.28.45c0,.09,0,.23,0,.33.17.25.35.49.53.76a9,9,0,0,0,.89,1.44c-.19-.11-.44-.26-.62-.39L128,212l-.24-.26s0,0-.11.07a2.05,2.05,0,0,0,.42.41,3,3,0,0,1,1,.88c-.31-.11-.57-.33-.89-.44a.78.78,0,0,1,.23.41c0,.1,0,.23,0,.33.66.41,1.48.57,2,1.2a1.3,1.3,0,0,0-.54.32l.28.25.55.38a1.86,1.86,0,0,1,.21.32c.4.21.73.52,1.12.75l-.05.11.24.11a1,1,0,0,1,.33.07,1.07,1.07,0,0,0,.52.37l.09.07,2.49,1.33.19.14a6.72,6.72,0,0,0,1,.26,1.43,1.43,0,0,1,.35.09,6.67,6.67,0,0,0,.7,0l.15-.2a1.92,1.92,0,0,0-1-.28c-.07-.07-.14-.14-.49-.23,0,0-.5-.35-1.07-.83,0,0-.06-.07-.26-.23s-.53-.44-.77-.68l-.24-.21-.32-.36-.21-.26a.88.88,0,0,0,.42-.08,3.09,3.09,0,0,1-.4-.55l.27-.2-.27-.72c.06-.08.12-.19.18-.28a.73.73,0,0,0-.41-.27l-.34-.06c-1.05-.72-1.05-.72-1.18-.88s-.05-.08-.11-.35l.22-.27h.68a3.28,3.28,0,0,1-.43-.95,4.65,4.65,0,0,1-.15-1l.36,0c0-.1,0-.23.05-.33s-.05-.1-.28-.29h-.06l-.05,0-.29.17c-.22-.15-.22-.15-.65-.76-.09-.15-.16-.3-.24-.45h.27a5.16,5.16,0,0,1,.67.32h.82l-.17-.29-.14-.35c0-.38,0-.38-.36-.91l-.15-.35a5.12,5.12,0,0,0,.8,0l.5,0,.32-.13c.23,0,.47,0,.8,0l.32.06c0-.6.46-1,.67-1.5l.07-.3a4.74,4.74,0,0,1-.15-.5,1.62,1.62,0,0,1-.33,0c0-.1-.06-.21-.13-.46-.37-.47-1-.6-1.34-1.13h.69c2.28.52,2.81.65,3-.17.59-2.83,1.12-3.13,1.33-3.24a1.27,1.27,0,0,1,.06.64l.34.07a8.88,8.88,0,0,0,.76-1.54c.07-.61.89-.62,1-1.21.13-.86-.82-1.54-.43-2.45a16.52,16.52,0,0,1,1.9-2c.32,0,.64,0,1.09,0a5.15,5.15,0,0,0,.74-.7c.81,0,1.62,0,2.44-.07a1.42,1.42,0,0,1,.23-.6,2.5,2.5,0,0,0,.9-1.32,3.76,3.76,0,0,0,.59-.39,2.57,2.57,0,0,1,.39-1.43c.22-.14.22-.14.56-1.9a1.22,1.22,0,0,1,.13-.48,3.24,3.24,0,0,0,.38-1.34,3.56,3.56,0,0,0,0-.53c0-.09,0-.22-.06-.32a3.06,3.06,0,0,0,0-.68,2.69,2.69,0,0,1,.28-1.36c.22-.06.22-.06,1.55-1.77a1.07,1.07,0,0,0,.9-.49l1.59-2.2c.42-.8.42-.8.45-1.23m-34.82-30.09.06,0c-.12-.12-.36-.05-.44-.25s0-.48,0-.72a4.64,4.64,0,0,1-1.35.24h-.45c-.23,0-.42-.22-.65-.24h-.22c-.2.08-.26.32-.47.39l-.75,0c-.32,0-.42-.37-.69-.43s-.53-.46-.91-.48l-1.51-.06a3.4,3.4,0,0,0-.82.14l0,1.52c.42.53.69.83.83.86h.46c.38,0,.38,0,.69-.41.15-.19.69-.26.69-.26.26,0,.48.13.73.13s.48-.14.73-.13a6.37,6.37,0,0,0,1.68-.22.43.43,0,0,1,.45,0,6.56,6.56,0,0,0,1.11.18H119c.16,0,.26-.15.39-.23m-11.46.74,0-.08c0-.16.06-.35-.09-.5s-.24,0-.35-.09-.22-.19-.36-.25l-.11,0-1.16,0c.07.15.12.31.2.46l.1.12c.08.08.1.07.32,0s.54.25.55.25.07.14.06.31a.58.58,0,0,0,0,.21c.13,0,.27.07.4,0s.09-.05.36-.45m-1.15-2.88,3.11-.07c-.19-.36-.93-1.43-1.57-1.53h-.44c-.44,0-.87.21-1.31,0s-.37-.49-.6-.7a9.22,9.22,0,0,0-1.12-.71c-.42-.29-.42-.29-.48-.48s-.08-.29-.33-.3l-.87.07c-.18,0-.18,0-.4.2s-.34,0-.51,0l-.82,0c-.69,0-.69,0-.8.08a1,1,0,0,0,1.34,1.57c.25-.16.38-.46.67-.58a3,3,0,0,1,.7,0s.78.31.85.81c0,.11,0,.21.13.26.66.38.76.35,1,.31s.34.06.45.29a1.33,1.33,0,0,0,1,.75m60.3-53c-.09-.18-.2-.36-.3-.54a1.2,1.2,0,0,0-.28-.27,1.38,1.38,0,0,0-.59-.15,3.52,3.52,0,0,0-.42-.84l-.61,0c-.22,0-.22,0-.71.49-.29,0-.56-.14-.86-.15-.5,0-.63.11-.72.19a.36.36,0,0,1-.27.11l-.52,0-.11-.26c0-.08-.07-.17-.11-.25s-.21-.17-.31-.26l-.24.05c0,.09.08.17.11.26a2.53,2.53,0,0,0-1-.09c-.08,0-.76.14-.21.71.28,0,.51-.21.79-.11l.57.34c.1.09.08.22.13.33a3.27,3.27,0,0,0-1.4,0l.25.4.22-.06.57,0,.1.07.19.54.24.29h.29c.28,0,.55,0,.84,0h.3c.4,0,.62.34.95.44,0,0,1.09.25,1.07-.31,0-.22,0-.22.16-.4s.28.09.36-.07.15-.27.29-.33.2-.08,1.24,0m-31.53,18.08.08-.1-.07-.39c-.45,0-.45,0-.6-.1a2.65,2.65,0,0,1-.68-.54c-.07-.11-.11-.18-.22-.22a7.25,7.25,0,0,0-.8-.09,2.75,2.75,0,0,1-.38-.2c.37-.7.37-.7.8-.87.07,0,.37-.4.21-.65a.76.76,0,0,1-.09-.18,1,1,0,0,1-.29,0,1.4,1.4,0,0,0-.53.21c-.16.16-.09.38-.16.56-.18.41-.18.41-.38.58,0,0-2.09,1.88-2.16,2a1.44,1.44,0,0,0-.26.56c0,.16,0,.31,0,.46h3a.71.71,0,0,1,.61.38,2.23,2.23,0,0,0,.94.81.55.55,0,0,1,.26-.14c.1,0,.34-.12.33-1,0-.53,0-.53.4-1m-8-1.19,0,0c-.1-.05-.18-.13-.29-.18a.52.52,0,0,0-.21,0c-.21,0-.23,0-.32,0a.65.65,0,0,1-.39-.34c-.07-.17-.14-.2-.24-.2a1.29,1.29,0,0,1-.28,0l-.43.2a1.06,1.06,0,0,1,.33.18c.09.1.08.24.15.34l.07.08a3.2,3.2,0,0,1,.27.25c.08.07.13.18.21.25a.47.47,0,0,0,.19.12c.11,0,.29.07.91-.64m25.88-30c-.21,0-.44,0-.65-.08h-.22v0a.88.88,0,0,1,.2.09,1,1,0,0,1-.32,0l-.08.07h0l-.06.09.06.09L152.1,78l-.2-.11a1.58,1.58,0,0,0-.31-.08h-.08l-.11,0,.11.07h-.21l-.09-.06h0l.1,0a1.17,1.17,0,0,0-.37,0h-.26l-.21,0h-.22l0-.1a1.93,1.93,0,0,0,.48,0,1.53,1.53,0,0,0,.42,0h.1l-.16,0H151l-.44,0h-.2l-.22,0h-.73l-.12,0h-.1l-.15,0h-.45l-.11,0h0l-.05,0h-.19l0,0h0l0,0h.14v0h0l0,0h-.18l-.09,0h0v0H148a.89.89,0,0,0-.23,0l0,0h0l0,0h0l0,0h0l0,0,0,0h-.09v0h0v0h0l0,0h-.09l-.11,0-.1,0h-.09l-.17.06h0l-.08,0,.1,0,.13,0,0,0h.07l0,0h0l.07,0h-1l0,0h.06l0,0h0v0h-.13l0,0h0v0h.05l0,0H146l-.12,0-.2,0h-.09l-.34.11h-.28l-.17,0-.41.07-.2,0h-.23l-.06,0h-.15l-.07,0-.06,0h-.05l-.24.06,0,0-.21,0,.09,0h0l0,0h0l.2,0h.13l-.21.08,0,0,0,0,0,0-.29.12-.23.07-.07,0-.15,0h0a.56.56,0,0,0-.24,0l-.12,0-.21,0a.84.84,0,0,0-.26,0l-.09,0-.11,0-.11,0H141l-.1,0-.41,0h-.11l-.06,0-.07,0-.06,0-.06,0-.07,0h-.21c-.37.12-.39.15-.45.27l.09,0-.08.06h.29v0h0l0,0h.21l.17,0,.07,0h.26l.1,0h.11l-.23.13-.1,0-.06,0-.27.08h-.06l0,0h0v0h-.2l-.2,0h0l-.15,0h-.06l-.18.08h-.19a.35.35,0,0,0-.25.15v0a.5.5,0,0,1,.23.16v0h-.1l-.08,0-.06,0,0,0,.05,0,0,0,0,0,0,0v0h0v0l.05,0h0v0l.11,0h.07l.06,0,0,0,.14-.14h.09l.21,0v0h.09l.09-.07h.15v0a.44.44,0,0,0,.2,0l.07,0,.06,0,.06,0h.14l.07,0,.15,0,.07.06,0,0h.26l.08.06v0h.35l.08.07,0,0h.19v.1l.08,0h.11v.09a2.19,2.19,0,0,0-.24.33v.08h.1l0,0h0l0,0,0,.12,0,0,0,.12,0,0v.47l0,0,.05.12,0,.06c-.11.09-.12.1-.1.29a1.76,1.76,0,0,1-.14.23c-.18.12-.18.12-.23.23h.25a.4.4,0,0,1-.17.18l-.21.06c-.08.12-.1.27-.2.37h-.21l-.11.2v.11a.72.72,0,0,0,.21,0,.79.79,0,0,1,.2,0l.11,0a3.89,3.89,0,0,0,.58,0c.06-.11.06-.11.58-.18,0,.22-.11.5.31.51h.07a2.14,2.14,0,0,1,.32.28v.1l-.08.1h-.27l-.11,0h-.26c-.24,0-.38,0-.48-.18-.83-.08-.92,0-.92.23l.15.17c-.2.23-.61.15-.76.48l.06.1c.49,0,.49,0,.67.33l.12,0a1,1,0,0,1,.86-.27,2.78,2.78,0,0,0,.12-.38,3.55,3.55,0,0,1-.46,0l0-.1a.83.83,0,0,1-.22,0l.11-.1h.31c.17.12.17.12.5.18h.34a.35.35,0,0,1,.2.07l0,.12,0,.07c-.14.06-.22.2-.34.28a.41.41,0,0,0,0,.12c.14.17.14.17.16.28s-.07.22-.1.33a2.77,2.77,0,0,1-.45,0c-.17,0-.29.21-.49.2h0a.8.8,0,0,1-.19,0,.41.41,0,0,0-.22,0,1.49,1.49,0,0,1-.3.55,1,1,0,0,1-.21-.07c-.7.36-.7.36-.72.43a1.07,1.07,0,0,0,0,.17,1.29,1.29,0,0,0,.07.21c.46.11.49.23.48.27,0,.33-.52.22-.51.57l0,.11s.07.21.13.46c.27.09.48-.14.73-.13a.77.77,0,0,1,.22,0l.05.09-.1.21h-.2l-.1,0c-.36.9-.36.9-.27,1,.42,0,.68-.45,1.12-.37a2.7,2.7,0,0,1-.19.6c-.16.15-.41.14-.57.28a11.81,11.81,0,0,0,.76,2.14c.65,1,1.2,1.45,1.63,1.42l.24,0a.59.59,0,0,1,.36-.1h.11c.11,0,.22,0,.33.06,0,.64.72.55,1,.9.16.18,1.38.19,1.36-.37,0-.06,0-.11,0-.25.06-.7,1.24-1.39.49-2,0,0-.47-.44.27-.49l.24,0a1.68,1.68,0,0,1,.35,0,1.62,1.62,0,0,1,.66-.73,3.07,3.07,0,0,1,.09-.76l.08-.07a.7.7,0,0,0-.28-.6l0-.11c.23-.15.53,0,.75-.21s0-.29.08-.43h.89a1.36,1.36,0,0,1,0-.48,2.14,2.14,0,0,1,.5.06c0,.36,0,.37.07.48.45,0,.77-.38,1.18-.55h.17a1,1,0,0,0,.52-.1l0-.11c.14-.26.41-.39.57-.62.16-.06.16-.06.31-.39a1.17,1.17,0,0,0,.24-.09.44.44,0,0,1,0-.18c.28-.24.28-.24.2-.55v0h.16l0,0h.06l.08,0h0l.08.07a.64.64,0,0,0,.34.05c.32,0,.59.2.91.2s.44-.59.86-.58.54-.22.84-.17.26-.59.6-.69h.64c.12-.07.12-.07.3-.33l-.06-.1-.13,0-.15.15,0,.14h-.23c-.23,0-.36-.31-.62-.31h-.18c-.74,0-.87-.27-.94-.38s-.06-.15-.09-.21c.85-.14.85-.14,1-.28.36.14.42.66.86.7l.08-.07,0-.19c.2-.1.44,0,.64-.09-.27-.37-.72-.52-1.06-.82s-.74-.32-.92-.74l.11,0c.46.27.46.27.5.27l.19,0,.11,0a2.85,2.85,0,0,0-.21-.37.89.89,0,0,1-.09-.18A.46.46,0,0,0,157,83a.7.7,0,0,1-.33-.08l.16-.15s0,0-.4-.18l0-.06h.4l.15.24a2.63,2.63,0,0,0,.46,0l.06-.1h.11l.19,0c.21.09.21.09.34,0,.09-.57-.76-.33-1.09-.57l0-.1c.45.1.58,0,.64,0l.06-.11.11,0h.14a.34.34,0,0,0,.2,0c-.33-.3-.83-.34-1.1-.72,0,0,0,0,.26,0a2.69,2.69,0,0,0-.29-.28,1,1,0,0,1-.32-.18s0,0-.07-.07c-.3-.15-.68-.09-.94-.33l0,0c.06-.08.06-.08.28-.11h.16a.62.62,0,0,1,.4.14s0,0,.08.09.08.14.43.36l.06,0-.62-.55,0-.1-.06,0c-.18-.1-.18-.1-.52-.1h-.25a.54.54,0,0,1-.17-.2l.09,0h.08l.11,0a1.32,1.32,0,0,0-.82-.15l0,.1a.64.64,0,0,1-.35-.26v-.09l-.34-.26h.16l-.1-.07v-.1s0,0,0-.06c-.27-.13-.28-.16-.31-.29l.1,0-.1,0v-.11l-.12,0-.36,0-.1-.08.21,0,.09,0-.18-.11.07,0-.22-.06m-7.05-.25.21,0h-.23l.2,0,.14,0h-.28l-.28,0,.25,0h-.15l.17,0h-.15l-.31,0,.19,0h-.74l-.19,0h.08l-.8,0-.43,0h.12a3.47,3.47,0,0,1-.72.1l.26,0h-.08l.47,0h-.25l-.71.07h0c-.21,0-.41,0-.62.06h-.11l-.37,0H142l-.41.06h-.07l-.54.08a1.4,1.4,0,0,1-.45.1h.07l-.06,0,.57-.09.33-.05.22,0-.46.07-.56.09-.47.1a4.19,4.19,0,0,0,1-.13l.08,0h.2l.49-.08.4-.06.74-.1H143l-.91.13h.26l-.33.06h-.37l-.23,0-.54.07h-.11l-.17,0-.39.08,0,0-.15,0-.32.1.12,0-.19,0h-.11c.44-.19.44-.19.5-.24h-.07l-.13,0-.47.1-.27.09-.34.11-.38.17-.08.07.17,0c-.18,0-.37.06-.55.12l-.45.15.37-.2-.07,0-.3,0-.28,0-.45.09-.44.14-.31.1,0,0h.26l.3,0-.56.12-.37.15c.17,0,.17,0,1.15-.22l-.55.18-.62.16-.27,0v-.13l.09-.12-.26,0a5.08,5.08,0,0,1-1.37.45l-.55.17-.43.24,0,.1a3,3,0,0,0,.57-.14,4.45,4.45,0,0,0,.77,0l0,.07a1.85,1.85,0,0,0,.39-.06c.07,0,.15,0,.17,0-.3.14-.3.14-.34.19a1.13,1.13,0,0,0,.32,0H135a7.81,7.81,0,0,0,1.29-.37l.31-.17-.47.11.43-.22.34,0,.55-.21.35-.18H138c.42,0,.76-.25,1.15-.34h.25a.63.63,0,0,0,.42-.19l0-.07h-.07l-.39.09L139,79l.3-.12c.3,0,.6-.12.9-.19h.17l-.19.08c.16,0,.16,0,.86-.12l.21-.12.24,0-.19.09h.21l.39-.06.32-.13v0h.38l.33-.08.31,0c.45-.09.89-.15,1.33-.23h.18l.23,0,.14,0-.68,0,.28,0,.24,0h.37a4.8,4.8,0,0,0,.52,0l.51-.06m-8.28,1.12.6-.16a.32.32,0,0,1,.11-.1l.37-.09.32-.08.18,0-.35.06a11.37,11.37,0,0,1,1.12-.27c.25-.05.51-.07.76-.14l-.52.06h.06a3.08,3.08,0,0,1-.49.07h-.12c-.3,0-.59.1-.89.16h-.07l-.16,0-.59.12-.35.06-.57.11h0l-.6.13-.25.08.21,0,.31,0,.2,0a3.34,3.34,0,0,1-.74.17h-.15l-.38.07-.25.1-.53.17,0,.07.36,0v.06l.41-.11h.09l.43-.13.48-.13-.09.07.52-.12v0a4.9,4.9,0,0,0,.48-.11M133.64,80a3.46,3.46,0,0,0,1-.33l-.43.07-.71.21.17.05m-.1,1.3h0L134,81l-.18-.12-.22-.09-.59.13-.74.15-.38,0-.22-.07-.38,0,.34-.26.59-.26.49-.23-.31,0a4.8,4.8,0,0,0-1.76.72l-.8.3-.34.23-.21.23.49-.06.52-.16-.22.24v0a1.27,1.27,0,0,0,.43,0l.55,0,.4-.09.37-.14-.1.15c1-.08,1-.08,1.24-.25a1.25,1.25,0,0,1,.52-.21m-6.39.7h.2l.32-.18-.52.19m1.69-.28.69-.3.14-.14.38-.2-.26,0-.61.16-.5.19-.38.25h.21l-.06.11.39-.11m2.36-1.06.61-.19.38-.15.32-.17-.22,0,.1-.07-.33,0-.62.21-.24.16-.19.14h.19m2.55-.88.44-.14h-.44l-.52.13-.37.13.3,0,.28-.06.31,0m.59-.28.4-.11.38-.15H135l.4-.14-.41.09-.45.13-.78.24,0,0,.26,0,.3,0Zm2.42-.77.33-.06.64-.14.12,0h-.09l-.59.11h.1l-.51.11m-3.9,1,.47-.13.54-.17.29-.09.54-.15.17-.07.25-.08-.19,0,.31-.09.3-.09-.18,0-.52.09-.46.11.13,0-.17.06-.59.15h-.13l-.51.15.14,0-.29.1.34-.08h.14l-.57.21v0m-.77.12.31-.07.32-.12-.22,0-.51.15Zm-1.88.91a2.33,2.33,0,0,0,.61-.31,4.25,4.25,0,0,0-.45.13l.35-.19h-.17a7.88,7.88,0,0,1-1.21.52v0h0l.68-.32h-.16l-.56.21-.57.22.33-.18.87-.34.2-.13-.85.29c-.35.14-.7.31-1.05.47l-.08.12.33-.09.2,0-.33.16-.74.34.36-.1.25,0,.24,0,.51-.2.74-.3.51-.17m-2.94.69c.22-.09.21-.13.21-.13h0c-.12,0-.23.1-.36.11l-.48.21a2.39,2.39,0,0,0,.64-.19m3.25-1.25.35-.08.74-.25.32-.12a12.59,12.59,0,0,0-1.41.45m-3.43,7.86.63-.43.18-.44a4.92,4.92,0,0,0-.87.07,7,7,0,0,0-.85.49l-.12.39.42,0,.61-.13m.4-5.36c.83-.36.83-.36.83-.46H128l0-.12a1.78,1.78,0,0,0-.56.09,4.68,4.68,0,0,1-1.05.45c-.36.18-.71.37-1.06.56l-1,.61.45-.09.58-.22.61-.33.17.08.56-.21.8-.37m-4.33,1.53.82-.4.43-.3.32-.27.13-.17a3.07,3.07,0,0,0,1.37-.66l.25-.17-.26,0-.52.23h-.1l0-.1-.38.1-.46.24-.37.25c-.93.44-.93.44-1,.43a2.44,2.44,0,0,1,.3-.24l-.2,0-.53.26-.21.2-.15.15,0,.1c-.71.49-.71.49-.67.63a5.33,5.33,0,0,0,.74-.31l.42,0m0-1.06.77-.34.22-.15-.13-.08a4.65,4.65,0,0,0-.52.2l-.33.23a3.84,3.84,0,0,1-.52.33l.51-.19m0-.26.54-.23-.18,0-.42.16.06,0Zm9.39-3.43c.39-.1.39-.1.74-.21l-.17,0-.32.06-.73.17h.11l.15,0h.22m-1.22.31.53-.13h-.08l-.18,0-.32.07-.51.12-.9.27,0,0,.29-.07.22,0,.45-.13.41-.13.12,0m-.8.12h0l.69-.19.23-.07h-.11l-.52.15-.33.1Zm-3.7,1.56,1.1-.4.31-.14h-.11l-.47.16.12-.08.5-.22.51-.17.56-.2h-.13l-.41.12-.24.06-.41.14c-.31.13-.31.13-1.1.4l0,0a1.92,1.92,0,0,1-.55.17h-.19l.3-.14.72-.28.19-.1h-.11l.26-.11,0,0-.45.11-.83.27-.6.19-.67.22-.63.23h.12l-.06.07.24-.06.38-.11,0,.06.15,0a3.9,3.9,0,0,1-.49.14h-.17l-.42.14-.44.18-.16.1.23,0,.7-.2.76-.26.27,0,.24,0,.26,0,.63-.21m1.56-.93.05,0,.52-.17c-.17,0-.21,0-.22,0l.06,0-.41.13m-3.19,1,1.14-.38-.4.11-.7.23,0,0ZM129,80.33l.75-.21.13-.06-.61.16-.14,0c-.07,0-2.15.62-2.17.62l-.1,0-.48.13-.63.22-.27.11.6-.19-.36.14.38-.12.45-.15.14,0,.67-.22.51-.14-.65.21.28-.07.43-.12,1.07-.32m-10.16,5.79.46-.25.17-.26,0-.26.51-.43.82-.44.29-.26,1-.55.56-.34.16-.19-.22,0-.82.39-.53.28-.65.38-.4.18h-.06l.23-.17.55-.29.42-.23.61-.37h-.12l-.49.26-.37.21h-.2l-.4.2-.26.06.48-.22.59-.27h-.08l.09-.1-.2,0-.57.27,0,0,.39-.17.67-.32.08-.06-.17,0-.61.24-.37.13-.34.11-.59.23-.68.34-.66.27-.41.2h.11l-.33.19.39-.14.28-.07-.33.21-.43.15-.37.13-.48.22-.22.21.22,0,.36-.08a.5.5,0,0,1,.21,0,1.59,1.59,0,0,1-.62.42h-.36l-.35,0-.73.3-.82.55h.23l.24,0-.75.53-.21.23.36,0,.39-.06.65-.28.49-.17.72-.31.41-.18-.19.19.26-.07-.18.37h.27l.37-.07.67-.39.25-.29.22,0,.41-.1m-3.26,1.27.59-.38-.72.24-1,.41.12.1.6-.26.38-.11ZM121,83.27l.56-.18.64-.29.61-.32,0,0-.57.19.22-.13.27-.15,0,0-.36.1-.54.22-1,.39-1.47.63-2,.89-.31.22-1.21.66.84-.4.17,0,.61-.27c1-.48,2.56-1.12,2.57-1.13l1-.36M133.46,105l.47-.37-.37-.36.38-.36.21-.77-1-.13-.08-.45H132l-1,.45-.66.37-.42-.18.34-.54,1.06-.32,1.23-.27.63-.44-.74,0-.64-.34L131,101l-.43-.52L130,100l-.11-.46.42-.09.25-.33-.34-.78-.4-.85L129.45,96l0-.66-1.09.87c-.11.24-.21.49-.32.75l-.88.29-.71.53-.71,0,.07-.48-.3-.36-.78.17.61-.84.56-1.08.27-.57-.78,0-.38-.41-.2-.58-.56-.6-.53.29-.77,0-.18-.21-.87,0-.64.41-.09.59-.67.79-.25.53-.16.73h-.48l-.41.72-.56.4.24.32.33.51-.34.94-.58,1.1-.89.78-1,.62-1,.16,0,1c-.21.41-.41.84-.61,1.26l-.07.72-.43.6-.76.76-1,.16,0-1-.19-.9.39-.77.38-1.06.6-.89-1-.13-.77,0-.23-.29-.78-.27,0-.5-.43-.52-.4-.56-1.26.38.16-.54.52-1.21-.21-.31.08-.46,1.33-1.46L112,94.46l1.29-.95.86-.35.89-.49.29-.49-.49-.18-.4-.32.7.14.5.21.43-.12.58-.52.37.25.46-.12.42-.41.4-.18.66-.54-.38,0-.49,0,.11-.29-.26-.31.38,0,.42.21.26.18.65-.22.81-.49.07-.37.45,0-.08.34-.61.4-.93.73c-.29.3-.58.61-.86.92l-.68.22-.25.42.49,0c-.11.13-.22.25,0,.42l.4-.13.62-.5h.66l.32.06.21.2.57,0,.49-.52-.46-.12.31-.65-.59,0,0-.49-.33-.12.35-.36.33.08.44-.26.23-.29.5,0,.6-.42.87-.42.49-.34.12-.36.4-.59.52-.09.59-.44.17-.42L125.7,86l-.13-.31.59,0,.33-.21.37,0,.07.23.53,0,.58-.12.09-.39.35-.09-.12.45.41,0-.26.43.26.08-.12.33.23.16-.19.43.32.16v.44l-.37.55-1.07.6-1,.61-.19.58-1,.15L125,90h-.51l-1,.52c-.15.17-.29.35-.44.53l.65.13.65-.06.39-.3.4-.18.33.1.59.22.23.74-.11.42.14.53.69,0,.32.72,1.1,0,.56.32.3-.44-.7-.89-.27-.38,0-.42.53.38.94.66.5.38c.11-.22.21-.43.32-.64l.68-.57-.45-.34.33-.85-.67-.29-.31-1,.51-.28.48-.26.69.94.12.62.52.09.58-.72.85-.27.26-.29h.47l.37-.32.21-.46h-.92l.15-.24-.3-.39-.34-.06-.4-.23H133l.1-.33.06-.29-.7,0-.26,0c.13-.16.24-.32.38-.49h.48l.43-.23-.51-.15.24-.19.35-.06-.09-.32-.37-.13.45-.29-.3-.19-.56,0,.15-.23-.41,0-.11,0,.58-.23-.31-.14-.73.16.07-.38.21-.22-.31,0,.3-.25-.28-.17h-.66l-.37.21-.4.06-.22-.06-.46.26-.34,0,.44-.33.61-.3.3-.4.43-.34-.52,0-.66.26-.39,0-.53.19-.63.36-.39.39-.55.26-.42.51-.34.06.28-.43.76-.57.56-.37.87-.38.84-.31h-.45l-.6.08-1.19.45-1.36.66-1.36.84.29.09.28,0-.34.32-.25-.06-.56.14-.28.41.46,0,.37-.11,0,.26.3.21-.55.15-.51.39-.06.27-1.36.8-.86.57-.85.47-.1-.18.56-.68.72-.42.24-.61-1,.5.57-.85-.05-.1.66-.44.62-.47-.17,0,.57-.38.31-.41h-.39l-.47.25-.24,0-.85.42-.43.34-.47.27-.32.44-.08.29-.71.43-.24-.1-.57.49.4,0,.87-.36c-.24.17-.47.34-.69.52l-1.42.57-.94.79.09-.41.83-.55h-.28l.65-.5h.26l.93-.71,0-.39-.86.51-.64.24-.25.53-.71.33-.67.43-1.08.12,0-.3-.21-.07.22-.42-.76.35-1,.4-.63.51-1.19.83,1.09-1,.12-.33-.68.22-.59-.1.4-.28.66-.27.41-.46-.29.06.23-.43.51-.35-.08-.05-.18.05-.61.32L113,87l1.16-.69-1.18.63,0-.06,1.38-.8.15-.11-1,.54-.69.36-.24.12-.58.29-.76.43,1.1-.62.4-.21.38-.19.54-.29.06-.05-.57.29-.78.42-.11,0h0c-2,1.19-4.64,2.93-6.6,4.22-3.09,2.21-3.09,2.21-8.68,7.26l-1,1,.16-.17-.33.35-.53.57-.16.21-.53.57-.26.34-.49.53-.12.19v.06l-.54.62-.5.65-.61.75-.55.73.06,0-.64.87-.47.79-.4.61-.17.43,0,.3v.2l-.29.48-.18.58-.16.51-.64,1.16-.58,1,.21-.58.33-.76.28-.49.12-.45v-.17l.5-.77-.14,0,.15-.37,0-.17V108l-.18.12-.34.61-.14.36-.23.5-.28.82-.47.93-.61,1.18-.57,1-.76,1.34c-.28.5-.54,1-.8,1.51l-.3.38-.5,1-.37,1-.51,1-.32.81-.19.69-.45,1-.19.86,0,.68-.41,1.5V126l-.21.78-.09.89.31,0,0,.6.22.47.06.78-.19,1-.1,1-.2,1.64.11.68.16.8,0,.59-.37.56.06.65.24.62.33.69.16.77-.15.67,0,.54.33.34.28.7.2.6,0,.73.24-.26.13-.81-.06-.9-.29-.34,0-.8-.29-.63v-2l-.19-.7.08-1-.25-.27.06-1.17-.11-1,.27-1.3.27-.08.29.37.07.68L83.05,133l.14,1.45.26,1.15.3.81.18.82-.05,1,.41.57.25.9.18.95L85.2,142l.15,1.17.29.53-.36.46-.14.75.65,1.09.57.91.73.39.78.85.95.7,1.1.89.91.4.6-.09.19-.52.68-.16.78.6.88,1,.51.87.73,0h.28l.43.23.49.93.94.4,0-.63.53.36c1.69,3,1.69,3,1.59,3.58l.35.49.38-.26.56.34c1.17,1.33,1.17,1.33,1.69,1.26l1.48.88.8.41-.14-1,.33-.63,1.36.09.19.61.44-.07.19-.81-.54-.73-1.41,0-.91,0-1.33-.09-.63-.54-.9-1.15v-.95c0-.41,0-.82,0-1.24l.23-1.59c0-.35,0-.71,0-1.07l-.43-.81-.82-.55-1.2.17-.84-.23-.91.54-.59-.54.55-.66V148c0-.21,0-.42,0-.63l.22-.71.34-1.15c0-.41,0-.84,0-1.26l.54-.51.14-.94-.37-.36-1.3.17-.8.21-.38.89-.39,1.33L95,146.29l-.66.16-.91.42-.94.23-.41-.87-.73-.59-.22-1-.44-1.29-.12-2.22,0-1.59.5-1.25.36-1.41-.15-1.43.86-1.41.56-.08.67-.74.71-.86.77.14.53.27.53-.31.27.75.73,0,.57-.08,0-.59.37-1,.92-.09.65-.14,1.17.13.34.81h.4l.33-.48.38-.14.46.7.42.87c0,.34-.09.68-.14,1l.24.59.07.65.35.48.15.71.48.35,0,.79.46.17.34-.55.31-.86-.16-1-.1-1.55-.43-1.35c.08-.6.17-1.19.36-2.07.12-.28.29-.66.42-.94l.73-1.3.86-.41,1.12-1,1-.76.94-.42.29-.73.76-.47-.34-1.22-.3-.55.34-.66-.25-.61.75-.39.37.87.53-.9.55-.77.54-.5.82-1.62,1.29,0,.94-.54,1-.12-.09-.64.27-1.31.92-1H119l.39-.57,1,0,1.07-.58.77-.77c1.75-.06,1.75-.06,2.32.28-.11.08-.25.17-.35.26a10.25,10.25,0,0,0-1.41.08c-.89.59-.89.59-.92,1.32l.5.26.73-.53.51-.31.91-.27,1-.46,1-.22.9-.87.84-.6.24-.7-1,.25-.88,1.06-1.13.06-.8-.44-.76-.75-.16-1.28,1-.64.22-1-1.15-.09-1.39.4-1.64.85-1.75,1.4-1.3.81.64-.75.88-.81.53-.39-1-.28,1.32,0,.53-.69.93-.63.89-.06.6-.77.83-.29,1.16,0,2.16-.06,1.06.18.88-.06,1-.62,1-.84,1.46-.15.79-.28"/>
    </g>

    <g data-id="wycd-text" fill="#2b3990">
      <path d="M96.63,144.59h2.14l1.65,6.45,1.79-6.48H104l1.81,6.48,1.64-6.45h2.1l-2.8,9.86h-1.87l-1.79-6.24-1.79,6.24H99.43Z"/>
      <path d="M110.53,144.28h2v3.61a2.3,2.3,0,0,1,1.93-1.15c1.4,0,2.21,1,2.21,2.54v5.11h-2v-4.52c0-.89-.39-1.33-1.06-1.33s-1.09.44-1.09,1.33v4.52h-2Z"/>
      <path d="M117.81,152.25v-.09c0-1.65,1.08-2.39,2.62-2.39a4,4,0,0,1,1.57.31v-.23c0-.87-.52-1.31-1.42-1.31a4.18,4.18,0,0,0-1.72.42l-.55-1.56a5.45,5.45,0,0,1,2.57-.6,2.71,2.71,0,0,1,3.05,3v4.55h-2v-.81a2.3,2.3,0,0,1-2,.95A2.14,2.14,0,0,1,117.81,152.25Zm4.21-.32v-.63a2.66,2.66,0,0,0-1.1-.24c-.73,0-1.19.36-1.19,1.05v0a.87.87,0,0,0,1,.93A1.18,1.18,0,0,0,122,151.93Z"/>
      <path d="M125.69,152.51v-3.95h-.76v-1.68h.76V145h2v1.92h1.48v1.68h-1.48v3.55c0,.43.2.64.62.64a1.87,1.87,0,0,0,.85-.21v1.58a2.83,2.83,0,0,1-1.47.4C126.53,154.52,125.69,154.07,125.69,152.51Z"/>
      <path d="M136.11,150.52l-3.2-5.93h2.3l1.93,3.85,2-3.85h2.24l-3.19,5.91v3.89h-2Z"/>
      <path d="M140.67,150.73v-.15a3.54,3.54,0,1,1,7.06,0v.15a3.54,3.54,0,1,1-7.06,0Zm5.1,0v-.1c0-1.22-.62-2.14-1.57-2.14s-1.57.91-1.57,2.12v.1c0,1.21.63,2.15,1.58,2.15S145.77,151.93,145.77,150.71Z"/>
      <path d="M149,152v-5.12h2v4.53c0,.88.4,1.33,1.07,1.33s1.09-.45,1.09-1.33v-4.53h2v7.51h-2v-1a2.28,2.28,0,0,1-1.92,1.15C149.8,154.53,149,153.55,149,152Z"/>
      <path d="M159.68,149.56v-.13c0-3,1.85-5,4.44-5a4.1,4.1,0,0,1,3.15,1.3l-1.22,1.57a2.72,2.72,0,0,0-2-1c-1.31,0-2.28,1.21-2.28,3.12v0c0,1.95,1,3.14,2.31,3.14a2.76,2.76,0,0,0,2-1l1.22,1.44a4.28,4.28,0,0,1-3.32,1.47C161.42,154.53,159.68,152.56,159.68,149.56Z"/>
      <path d="M168.1,152.25v-.09c0-1.65,1.07-2.39,2.62-2.39a3.9,3.9,0,0,1,1.56.31v-.23c0-.87-.51-1.31-1.41-1.31a4.18,4.18,0,0,0-1.72.42l-.55-1.56a5.41,5.41,0,0,1,2.56-.6,2.71,2.71,0,0,1,3.06,3v4.55h-1.95v-.81a2.3,2.3,0,0,1-2,.95A2.14,2.14,0,0,1,168.1,152.25Zm4.21-.32v-.63a2.66,2.66,0,0,0-1.1-.24c-.73,0-1.2.36-1.2,1.05v0a.88.88,0,0,0,1,.93A1.18,1.18,0,0,0,172.31,151.93Z"/>
      <path d="M175.74,146.88h2v1a2.3,2.3,0,0,1,1.93-1.15c1.4,0,2.21,1,2.21,2.54v5.11h-2v-4.52c0-.89-.4-1.33-1.07-1.33s-1.09.44-1.09,1.33v4.52h-2Z"/>
      <path d="M186.73,144.59h3.16a4.49,4.49,0,0,1,4.68,4.83v.12a4.5,4.5,0,0,1-4.68,4.85h-3.16Zm2,1.83v6.14h1.12c1.54,0,2.59-1.08,2.59-3v-.07c0-2-1.05-3-2.59-3Z"/>
      <path d="M195.69,150.73v-.15a3.54,3.54,0,1,1,7.06,0v.15a3.54,3.54,0,1,1-7.06,0Zm5.1,0v-.1c0-1.22-.62-2.14-1.57-2.14s-1.57.91-1.57,2.12v.1c0,1.21.63,2.15,1.58,2.15S200.79,151.93,200.79,150.71Z"/>
    </g>
  </a>

  <a href="https://www.epa.gov/climate-change/what-you-can-do-about-climate-change-environmental-justice-ej" target="_top">
    <g data-id="ej">
      <g class="slice">
        <path d="M106.18,220.76A83.28,83.28,0,0,1,66.74,150c0-.66,0-1.31.05-2h-50c0,.65,0,1.3,0,2A133.35,133.35,0,0,0,82.2,264.69Z"/>
      </g>
      <g class="text">
        <path d="M41,197.9l2.72,5.7-1.65.79-1.85-3.88-1.91.91,1.63,3.41-1.65.79-1.63-3.41-2,.95,1.87,3.92-1.65.79-2.75-5.74Z"/>
        <path d="M36.58,208.67l1.82.49a1.84,1.84,0,0,0-.09,1.58c.3.62.88.82,1.79.38L46,208.25l.89,1.84-6,2.91a3.29,3.29,0,0,1-2.56.31,3.12,3.12,0,0,1-1.71-1.67A3.44,3.44,0,0,1,36.58,208.67Z"/>
      </g>
      <g class="icon">
        <rect x="64.26" y="200.05" width="12.43" height="1.63"/>
        <path d="M73.62,197.33H67.34a2,2,0,0,0-2,2H75.62A2,2,0,0,0,73.62,197.33Z"/>
        <rect x="62.42" y="182.7" width="6.42" height="9.71" transform="translate(-95.23 70.9) rotate(-34.76)"/>
        <path d="M59.69,182h4.85A1.05,1.05,0,0,1,65.59,183v0a0,0,0,0,1,0,0h-7a0,0,0,0,1,0,0v0A1.05,1.05,0,0,1,59.69,182Z" transform="translate(-92.97 67.99) rotate(-34.76)"/>
        <path d="M66.75,192.14h4.85a1.05,1.05,0,0,1,1.05,1.05v0a0,0,0,0,1,0,0h-7a0,0,0,0,1,0,0v0A1.05,1.05,0,0,1,66.75,192.14Z" transform="translate(235.87 311.51) rotate(145.24)"/>
        <path d="M46.54,200.92h0a1.76,1.76,0,0,0,2.49.41l14-10.25L61.57,189,47,198.44A1.76,1.76,0,0,0,46.54,200.92Z"/>
      </g>
    </g>
  </a>

  <a href="https://www.epa.gov/climate-change/what-you-can-do-about-climate-change-water" target="_top">
    <g data-id="water">
      <g class="slice">
        <path d="M189.21,223.43a83.09,83.09,0,0,1-79.58-.64l-24,43.89a133.08,133.08,0,0,0,127.5.63Z"/>
      </g>
      <g class="text">
        <path d="M131.58,266l2.14.21,1,6.58,2.42-6.27,1.75.17,1.17,6.63,2.25-6.27,2.09.2-3.74,9.54-1.85-.18-1.18-6.37-2.39,6-1.84-.18Z"/>
        <path d="M144,274.75v-.09c0-1.65,1.12-2.37,2.66-2.34a4,4,0,0,1,1.56.34v-.23c0-.86-.49-1.32-1.39-1.34a4.24,4.24,0,0,0-1.72.39l-.52-1.56a5.34,5.34,0,0,1,2.57-.56,3.19,3.19,0,0,1,2.27.81,3.1,3.1,0,0,1,.72,2.28L150,277l-1.94,0v-.81a2.32,2.32,0,0,1-2,.91A2.13,2.13,0,0,1,144,274.75Zm4.21-.25,0-.63a2.71,2.71,0,0,0-1.11-.25c-.72,0-1.19.34-1.2,1v0a.89.89,0,0,0,1,1A1.19,1.19,0,0,0,148.18,274.5Z"/>
        <path d="M152,275.1l-.08-4-.76,0,0-1.68.76,0,0-1.91,2,0,0,1.91,1.49,0,0,1.68-1.48,0,.07,3.54c0,.44.21.64.63.63a1.85,1.85,0,0,0,.85-.22l0,1.58a2.89,2.89,0,0,1-1.46.42A1.74,1.74,0,0,1,152,275.1Z"/>
        <path d="M156.39,273.23v-.12c-.18-2.22,1.08-3.95,3-4.1,2.14-.17,3.32,1.5,3.5,3.73,0,.11,0,.35,0,.64l-4.46.36a1.61,1.61,0,0,0,1.73,1.38,2.2,2.2,0,0,0,1.51-.87l1.11,1.12a3.42,3.42,0,0,1-2.57,1.41A3.52,3.52,0,0,1,156.39,273.23Zm4.48-1c-.16-1-.66-1.63-1.4-1.57s-1.15.7-1.18,1.77Z"/>
        <path d="M163.74,268.73l2-.28.18,1.31A2,2,0,0,1,167.7,268l.3,2.13h-.08c-1.21.18-1.82,1-1.6,2.58l.44,3.11-2,.28Z"/>
      </g>
      <g class="icon">
        <path d="M158.39,252.65a7.23,7.23,0,0,1-7.23,8.65c-4,0-7.84-3.15-7.22-8.65.33-3,3.51-6.93,5.34-10a13.86,13.86,0,0,0,1.88-4.58,15,15,0,0,0,1.93,4.75C154.88,245.87,158,249.74,158.39,252.65Z"/>
      </g>
    </g>
  </a>

  <a href="https://www.epa.gov/climate-change/what-you-can-do-about-climate-change-transportation" target="_top">
    <g data-id="transportation">
      <g class="slice">
        <path d="M233.21,148c0,.65,0,1.3,0,2a83.29,83.29,0,0,1-40.57,71.45l24,43.91A133.34,133.34,0,0,0,283.26,150c0-.66,0-1.31,0-2Z"/>
      </g>
      <g class="text">
        <path d="M228,240.28,226,241.81l-1.16-1.47L230.3,236l1.16,1.47L229.54,239l4.93,6.2-1.58,1.25Z"/>
        <path d="M232,237.51l1.46-1.35.91,1a2,2,0,0,1,.5-2.45l1.46,1.58-.06.06c-.9.83-.92,1.88.15,3l2.14,2.31L237.07,243Z"/>
        <path d="M239.08,238.24l-.06-.06c-1.2-1.13-1-2.43.07-3.55a4.1,4.1,0,0,1,1.3-.92l-.16-.16a1.23,1.23,0,0,0-1.93.13,4.12,4.12,0,0,0-.88,1.53l-1.51-.67a5.4,5.4,0,0,1,1.33-2.27,2.71,2.71,0,0,1,4.31-.13l3.3,3.13-1.34,1.42-.59-.56a2.3,2.3,0,0,1-.65,2.07A2.14,2.14,0,0,1,239.08,238.24Zm2.67-3.28-.46-.43a2.55,2.55,0,0,0-.93.64,1,1,0,0,0-.06,1.58l0,0a.89.89,0,0,0,1.35-.05A1.19,1.19,0,0,0,241.75,235Z"/>
        <path d="M240.35,229l1.26-1.54.78.64a2.28,2.28,0,0,1,.34-2.22c.88-1.08,2.16-1.09,3.36-.1l3.95,3.24-1.26,1.54-3.5-2.87c-.68-.56-1.28-.54-1.7,0s-.35,1.13.33,1.69l3.5,2.87-1.26,1.53Z"/>
        <path d="M250.11,227.49l-.63-1.53a3.48,3.48,0,0,0,1.86-1.12c.33-.46.25-.8,0-1h0c-.35-.26-.83.09-1.59.54-1,.59-2,1-3,.27l0,0a2.33,2.33,0,0,1-.34-3.43,4.45,4.45,0,0,1,2.11-1.53l.69,1.48a3.42,3.42,0,0,0-1.52,1c-.28.38-.24.73,0,.9h0c.32.24.83-.09,1.59-.52,1.06-.58,2-1,3-.28h0c1.26.92,1.22,2.31.34,3.52A4.56,4.56,0,0,1,250.11,227.49Z"/>
        <path d="M248.65,218.22l1.07-1.67.87.56a2.39,2.39,0,0,1,.11-2.35c.8-1.25,2.57-1.74,4.72-.36l.19.12c2.16,1.38,2.45,3.19,1.64,4.45a2.42,2.42,0,0,1-2,1.11l2.6,1.66-1.08,1.68Zm5.85-2.05-.11-.07c-1.08-.69-2.1-.6-2.55.09s-.11,1.68,1,2.37l.12.08c1.07.68,2.11.58,2.55-.12S255.58,216.86,254.5,216.17Z"/>
        <path d="M256.21,213.5l-.14-.07a3.59,3.59,0,0,1-1.61-5,3.55,3.55,0,0,1,5-1.2l.13.08a3.54,3.54,0,1,1-3.43,6.16Zm2.46-4.46-.08,0c-1.06-.59-2.17-.51-2.64.33s0,1.81,1.09,2.4l.09.05c1.05.59,2.18.5,2.64-.33S259.74,209.64,258.67,209Z"/>
        <path d="M256.84,204.35l.89-1.78,1.19.6a2,2,0,0,1-.4-2.47l1.93,1,0,.08c-.54,1.09-.19,2.08,1.21,2.78l2.82,1.4-.88,1.78Z"/>
        <path d="M264.34,201.84l-3.6-1.63-.31.69-1.53-.7.31-.69-1.74-.79.82-1.81,1.75.79.61-1.35,1.53.7-.62,1.35,3.23,1.46a.55.55,0,0,0,.84-.29,1.88,1.88,0,0,0,.16-.86l1.44.65a2.9,2.9,0,0,1-.25,1.5A1.73,1.73,0,0,1,264.34,201.84Z"/>
        <path d="M266,197.58l-.08,0c-1.53-.62-1.82-1.89-1.24-3.32a3.92,3.92,0,0,1,.86-1.34l-.2-.09a1.23,1.23,0,0,0-1.75.83,4.25,4.25,0,0,0-.25,1.75l-1.65-.07a5.47,5.47,0,0,1,.4-2.6A2.7,2.7,0,0,1,266,191l4.22,1.69-.72,1.8-.75-.3a2.3,2.3,0,0,1,.16,2.16A2.15,2.15,0,0,1,266,197.58Zm1.27-4-.59-.24a2.87,2.87,0,0,0-.63.94,1,1,0,0,0,.53,1.5h0a.88.88,0,0,0,1.23-.55A1.18,1.18,0,0,0,267.25,193.55Z"/>
        <path d="M269.16,190.16l-3.72-1.3-.25.71L263.6,189l.25-.71-1.81-.63.66-1.88,1.81.64L265,185l1.58.55-.49,1.4,3.35,1.17a.56.56,0,0,0,.81-.37,1.9,1.9,0,0,0,.08-.88l1.49.53a2.77,2.77,0,0,1-.11,1.51A1.75,1.75,0,0,1,269.16,190.16Z"/>
        <path d="M262.9,183l.61-2,1.73.54-.62,2Zm2.49.73.59-1.9,7.17,2.23-.59,1.9Z"/>
        <path d="M270.14,181.57l-.15,0a3.59,3.59,0,0,1-2.83-4.39,3.55,3.55,0,0,1,4.58-2.44l.15,0a3.54,3.54,0,1,1-1.75,6.83Zm1.25-4.94-.1,0c-1.18-.31-2.22.06-2.46,1s.48,1.74,1.66,2l.1,0c1.16.31,2.23-.07,2.47-1S272.57,176.94,271.39,176.63Z"/>
        <path d="M268.44,172.57l.36-1.95,1,.18a2.3,2.3,0,0,1-.78-2.11c.26-1.37,1.37-2,2.9-1.71l5,.93-.36,2-4.45-.83c-.86-.16-1.38.15-1.5.81s.24,1.15,1.11,1.31l4.44.83-.36,1.95Z"/>
      </g>

      <g class="icon">
        <path d="M228.46,203.34h2.38a0,0,0,0,1,0,0v4.34a.57.57,0,0,1-.57.57H229a.57.57,0,0,1-.57-.57v-4.34A0,0,0,0,1,228.46,203.34Z"/>
        <path d="M242.17,203.34h2.38a0,0,0,0,1,0,0v4.34a.57.57,0,0,1-.57.57h-1.24a.57.57,0,0,1-.57-.57v-4.34A0,0,0,0,1,242.17,203.34Z"/>
        <polygon points="244.85 200.14 228.02 200.14 227.71 201.49 227.71 205.58 245.16 205.58 245.16 201.49 244.85 200.14"/>
        <path d="M243.11,200.52l-.83-4.38a57.46,57.46,0,0,0-5.84-.25,54.06,54.06,0,0,0-5.86.26l-.81,4.37-1.21-.19,1.05-4.37a1,1,0,0,1,.86-.81,68.67,68.67,0,0,1,11.94,0,1,1,0,0,1,.85.81l1.07,4.37Z"/>
        <circle cx="229.65" cy="202.6" r="0.89"/>
        <circle cx="243.36" cy="202.6" r="0.89"/>
        <polygon points="241.22 204.28 231.79 204.28 230.79 201.71 242.22 201.71 241.22 204.28"/>
      </g>
    </g>
  </a>

  <a href="https://www.epa.gov/climate-change/what-you-can-do-about-climate-change-waste" target="_top">
    <g data-id="waste">
      <g class="slice">
        <path d="M189.4,76.67A83.39,83.39,0,0,1,233,144h50.09A133.4,133.4,0,0,0,213.35,32.78Z"/>
      </g>
      <g class="text">
        <path d="M220.94,81.42l1.35,1.67-4,5.35,6.16-2.7,1.11,1.37-3.88,5.49,6-2.8,1.32,1.63-9.41,4L218.49,94l3.7-5.32-6,2.54-1.17-1.43Z"/>
        <path d="M223,96.34l.07,0c1.38-.91,2.59-.41,3.44.87a4.2,4.2,0,0,1,.6,1.48l.19-.12a1.23,1.23,0,0,0,.32-1.9,4.25,4.25,0,0,0-1.29-1.21l1-1.31a5.32,5.32,0,0,1,1.91,1.81,3.14,3.14,0,0,1,.61,2.33,3.1,3.1,0,0,1-1.47,1.89l-3.8,2.49L223.5,101l.68-.45a2.31,2.31,0,0,1-1.87-1.1A2.15,2.15,0,0,1,223,96.34Zm2.58,3.35.53-.34a2.8,2.8,0,0,0-.41-1.06,1,1,0,0,0-1.53-.42l0,0a.88.88,0,0,0-.26,1.32A1.19,1.19,0,0,0,225.58,99.69Z"/>
        <path d="M225.75,102.86l1.64.07a3.48,3.48,0,0,0,.25,2.16c.27.49.62.56.89.41h0c.38-.21.26-.79.17-1.67-.11-1.15-.09-2.21,1-2.83h0A2.31,2.31,0,0,1,233,102.1a4.37,4.37,0,0,1,.5,2.56h-1.63a3.43,3.43,0,0,0-.27-1.8c-.24-.42-.57-.52-.82-.38l0,0c-.34.19-.26.79-.19,1.66.08,1.21,0,2.25-1,2.84h0c-1.35.76-2.6.14-3.33-1.17A4.5,4.5,0,0,1,225.75,102.86Z"/>
        <path d="M229.88,108.39l3.55-1.72-.33-.68,1.51-.73.33.68,1.72-.83.87,1.78-1.73.84.65,1.33-1.51.74-.65-1.34L231.11,110a.54.54,0,0,0-.31.83,1.86,1.86,0,0,0,.56.68l-1.42.69a2.83,2.83,0,0,1-1-1.16A1.74,1.74,0,0,1,229.88,108.39Z"/>
        <path d="M233.4,111.54l.12-.05c2.06-.84,4.08-.17,4.8,1.58.8,2-.42,3.62-2.5,4.46l-.6.23-1.68-4.15a1.6,1.6,0,0,0-.79,2.07,2.21,2.21,0,0,0,1.27,1.18l-.73,1.4a3.48,3.48,0,0,1-2.12-2A3.52,3.52,0,0,1,233.4,111.54Zm2.32,4c.93-.47,1.36-1.12,1.08-1.81s-1-.88-2.05-.59Z"/>
      </g>
      <g class="icon">
        <polygon points="252.5 100.73 241.12 100.73 237.81 82 255.81 82 252.5 100.73"/>
        <path d="M238.06,79.47h17.5a1.06,1.06,0,0,1,1.06,1.06v.41a0,0,0,0,1,0,0H237a0,0,0,0,1,0,0v-.41A1.06,1.06,0,0,1,238.06,79.47Z"/>
        <path d="M250.48,78.69a1.45,1.45,0,0,0-1.4-1.12h-4.54a1.45,1.45,0,0,0-1.4,1.12Z"/>
      </g>
    </g>
  </a>

  <a href="https://www.epa.gov/climate-change/what-you-can-do-about-climate-change-energy" target="_top">
    <g data-id="energy">
      <g class="slice">
        <path d="M113,75.44a83.14,83.14,0,0,1,72.84-.59l24-43.92A133.1,133.1,0,0,0,89,31.53Z"/>
      </g>
      <g class="text">
        <path d="M128.55,53.52l6.21-1.13.32,1.8-4.22.77.38,2.08,3.71-.68.33,1.8-3.71.68L132,61l4.28-.78.33,1.8-6.27,1.14Z"/>
        <path d="M137.05,54.4l2-.2.1,1a2.28,2.28,0,0,1,1.81-1.33c1.39-.14,2.3.76,2.45,2.3l.49,5.09-2,.19-.44-4.5c-.09-.88-.52-1.28-1.19-1.22s-1,.55-1,1.43l.44,4.5-2,.19Z"/>
        <path d="M144.87,57.53v-.12c0-2.23,1.32-3.87,3.21-3.91,2.14,0,3.22,1.7,3.26,3.93,0,.12,0,.36,0,.65l-4.48.08a1.59,1.59,0,0,0,1.65,1.48,2.19,2.19,0,0,0,1.55-.77l1.05,1.19a3.49,3.49,0,0,1-2.66,1.25A3.54,3.54,0,0,1,144.87,57.53Zm4.54-.73c-.1-1-.56-1.67-1.3-1.66s-1.2.64-1.29,1.7Z"/>
        <path d="M152.91,53.66l2,.09-.07,1.33a2,2,0,0,1,2.1-1.35l-.1,2.15h-.09c-1.22-.06-2,.66-2.06,2.22l-.15,3.15-2-.1Z"/>
        <path d="M157.24,62.89l.8-1.46a4.3,4.3,0,0,0,2,.8,1.59,1.59,0,0,0,2-1.55l.06-.47a2.53,2.53,0,0,1-2.23.92c-1.47-.18-2.64-1.49-2.36-3.83v0c.28-2.34,1.73-3.33,3.19-3.15a2.51,2.51,0,0,1,1.94,1.34l.11-1,2,.24-.73,6.09a3.54,3.54,0,0,1-1.16,2.49,3.86,3.86,0,0,1-2.94.55A6.54,6.54,0,0,1,157.24,62.89Zm5.24-5h0c.13-1.1-.41-1.88-1.24-2s-1.53.54-1.66,1.63v0c-.14,1.12.39,1.89,1.22,2S162.35,59,162.48,57.86Z"/>
        <path d="M171,55.92l2,.41-3.95,7c-.79,1.37-1.47,1.82-2.62,1.58a3.09,3.09,0,0,1-1.49-.77l.83-1.34a1.69,1.69,0,0,0,.75.41.61.61,0,0,0,.72-.34l-1-7.88,2,.42.39,5.16Z"/>
      </g>
      <g class="icon">
        <polygon points="146.77 49.1 162.29 32.04 156.51 32.04 162.53 23.15 155.67 23.15 149.29 35.63 153.74 35.63 146.77 49.1"/>
      </g>
    </g>
  </a>

  <a href="https://www.epa.gov/climate-change/what-you-can-do-about-climate-change-do-more" target="_top">
    <g data-id="more">
      <g class="slice">
        <path d="M67,144a83.37,83.37,0,0,1,42.49-66.73l-24-43.89A133.39,133.39,0,0,0,16.88,144Z"/>
      </g>
      <g class="text">
        <path d="M55.54,124.08l1-3a4.49,4.49,0,0,1,6.08-2.88l.11,0a4.5,4.5,0,0,1,3.1,6l-1,3Zm2.38-1.34,5.82,2,.35-1.07c.5-1.46-.19-2.8-2-3.42l-.07,0c-1.84-.62-3.21,0-3.71,1.48Z"/>
        <path d="M64.34,117.49l-.14-.06a3.59,3.59,0,0,1-2.06-4.8A3.54,3.54,0,0,1,67.06,111l.14.06a3.54,3.54,0,1,1-2.86,6.45Zm2-4.67-.09,0c-1.11-.49-2.21-.31-2.6.56s.2,1.81,1.31,2.3l.09,0c1.1.49,2.21.3,2.6-.57S67.5,113.32,66.39,112.82Z"/>
        <path d="M64.17,103.54l1.11-1.81,4.53.22L67.55,98l1.12-1.83L77,101.33,76,103l-5.33-3.28,2.24,4.09,0,0-4.63-.14L73.55,107l-1,1.68Z"/>
        <path d="M74.85,98.11,74.73,98a3.6,3.6,0,0,1-.92-5.14A3.54,3.54,0,0,1,79,92.39l.12.09a3.54,3.54,0,1,1-4.25,5.63ZM77.91,94,77.83,94c-1-.73-2.08-.8-2.65,0s-.23,1.8.74,2.53l.08.06c1,.73,2.09.79,2.66,0S78.88,94.77,77.91,94Z"/>
        <path d="M77.14,88.91l1.31-1.49,1,.87a2,2,0,0,1,.24-2.49l1.62,1.42,0,.07c-.8.91-.71,2,.47,3l2.37,2.07-1.31,1.5Z"/>
        <path d="M83.11,87.89,83,87.8c-1.58-1.57-1.75-3.69-.42-5,1.51-1.51,3.49-1,5.08.55.08.08.25.25.45.47L85,87a1.6,1.6,0,0,0,2.22-.09,2.22,2.22,0,0,0,.58-1.64l1.57.13a3.45,3.45,0,0,1-1,2.74A3.53,3.53,0,0,1,83.11,87.89Zm2.74-3.69c-.79-.67-1.56-.81-2.09-.28S83.35,85.21,84,86Z"/>
        <path d="M84.85,78l-.18-.21,1.75-1.56.19.21,3.69,5.11-.8.72Zm5,5.45L91.43,82l1.44,1.61-1.62,1.45Z"/>
      </g>
      <g class="icon">
        <path d="M53.68,79.1a8,8,0,0,0-8,8,8.43,8.43,0,0,0,.16,1.6l8.25-2L49.6,94a8,8,0,1,0,4.08-14.9Z"/>
        <path d="M53.68,76.2A10.93,10.93,0,0,0,42.77,87.11,10.6,10.6,0,0,0,43,89.38l1-.23a9.8,9.8,0,0,1-.21-2A9.92,9.92,0,1,1,53.68,97a9.74,9.74,0,0,1-5.07-1.42l-.53.85A10.79,10.79,0,0,0,53.68,98a10.92,10.92,0,1,0,0-21.83Z"/>
        <polygon points="51.48 88.83 35.59 92.61 40.08 95.35 34.13 99.65 35.77 101.91 41.71 97.61 42.9 102.73 51.48 88.83"/>
      </g>
    </g>
  </a>
</svg>
